Coordinates
version=1
nRows=17
nColumns=36
inDegrees=yes

Units are S.I. units (second, meters, Newtons, ...)
If the header above contains a line with 'inDegrees', this indicates whether rotational values are in degrees (yes) or radians (no).

endheader
time	pelvis_tilt	pelvis_list	pelvis_rotation	pelvis_tx	pelvis_ty	pelvis_tz	hip_flexion_r	hip_adduction_r	hip_rotation_r	knee_angle_r	knee_angle_r_beta	ankle_angle_r	subtalar_angle_r	mtp_angle_r	hip_flexion_l	hip_adduction_l	hip_rotation_l	knee_angle_l	knee_angle_l_beta	ankle_angle_l	subtalar_angle_l	mtp_angle_l	lumbar_extension	lumbar_bending	lumbar_rotation	arm_flex_r	arm_add_r	arm_rot_r	elbow_flex_r	pro_sup_r	arm_flex_l	arm_add_l	arm_rot_l	elbow_flex_l	pro_sup_l
      5.00000000	    -12.72737085	      0.76640211	      3.20704881	      0.43839572	      1.06374232	     -0.07062932	     18.81443898	     -6.47558485	     -6.33902223	      1.27893832	      0.02232168	    -22.98615515	     -4.96923580	     -7.49999987	     22.30993565	     -2.58941081	      8.89131071	     11.19279855	      0.19535119	    -16.77058542	     -7.33210055	     -7.49999987	    -17.08553354	      1.06200498	      1.57526860	      0.77176860	     -9.55010930	    -15.54620263	     35.61480887	     78.83595605	      3.97760068	    -16.54530641	    -55.70426267	     86.34106236	     69.45464900
      5.00416670	    -12.46746787	      0.73706751	      3.25815881	      0.43947756	      1.06093615	     -0.07172778	     18.65491638	     -6.42807155	     -6.58248682	      1.34275371	      0.02343547	    -23.22686125	     -4.68489952	     -7.49999987	     22.20588996	     -2.50266324	      8.69838946	     11.16513603	      0.19486839	    -17.08975310	     -7.50857515	     -7.49999987	    -17.68606360	      1.10854803	      1.57651487	      1.25002849	     -9.58005356	    -15.10373284	     35.47339067	     78.90912050	      4.63475959	    -16.69145930	    -55.55216014	     84.13139218	     69.24091920
      5.00833330	    -12.49659327	      0.74141978	      3.39749894	      0.44181751	      1.05051707	     -0.07377823	     18.70971800	     -6.47466946	     -6.59041783	      1.38542020	      0.02418014	    -23.72128733	     -4.99845986	     -7.49999987	     22.43227743	     -2.33761690	      8.54482265	     11.25856919	      0.19649910	    -17.47715939	     -7.78893428	     -7.49999987	    -17.47375757	      1.17628855	      1.99933462	      0.83748917	     -9.81702555	    -15.30350158	     35.76506668	     77.03214567	      4.73944238	    -17.00636102	    -55.59628005	     85.21039012	     67.98326745
      5.01250000	    -12.46539024	      0.70396622	      3.57298026	      0.44134723	      1.04450654	     -0.07379769	     18.81469088	     -6.48145892	     -6.82476697	      1.57089393	      0.02741727	    -24.04250180	     -4.93271255	     -7.49999987	     22.71232758	     -2.18084888	      8.42428303	     11.57677973	      0.20205292	    -17.81361043	     -8.06507848	     -7.49999987	    -17.71279019	      1.27691868	      1.92151445	      1.08810849	     -9.78111543	    -15.35132589	     35.96790934	     76.54403939	      5.00964794	    -16.95392447	    -55.77874065	     84.60969030	     67.43815039
      5.01666670	    -12.48456160	      0.64126008	      3.71866717	      0.44184407	      1.04112963	     -0.07686630	     18.95974797	     -6.56218392	     -7.09604724	      1.68651919	      0.02943531	    -24.64970570	     -4.59149948	     -7.49999987	     22.96680232	     -1.98265780	      8.36817094	     11.74902974	      0.20505925	    -18.39894860	     -8.36020062	     -7.49999987	    -17.78513419	      1.51183359	      1.97006155	      0.92676597	     -9.98261261	    -15.26563688	     36.70355170	     73.99137099	      4.71134619	    -16.93319606	    -57.05546474	     87.22491460	     65.54203273
      5.02083330	    -12.47434718	      0.60243574	      3.84900155	      0.44211875	      1.03715971	     -0.07757704	     19.13036439	     -6.57001292	     -7.22304830	      1.79816479	      0.03138390	    -25.52422750	     -4.77642895	     -7.49999987	     23.13856134	     -1.80994909	      8.07900556	     11.91851576	      0.20801734	    -18.91952852	     -8.25473881	     -7.49999987	    -17.99181721	      1.69821778	      2.09400047	      1.18195132	    -10.00027367	    -15.26868734	     36.69056595	     74.29005326	      4.75857344	    -16.65853450	    -57.66807623	     88.32657210	     65.38279204
      5.02500000	    -12.32658894	      0.46576933	      3.95159492	      0.44328193	      1.03315194	     -0.07839125	     19.11684032	     -6.48040790	     -7.68571180	      1.95105816	      0.03405239	    -26.52786919	     -4.41526561	     -7.49999987	     23.05109167	     -1.79072163	      7.96185821	     11.84699225	      0.20676902	    -19.75064872	     -7.99281071	     -7.49999987	    -18.37683180	      1.90273415	      1.81779894	      1.57587742	    -10.11707532	    -14.49871427	     36.90217900	     74.01517862	      5.76588662	    -17.57728755	    -57.33176785	     86.90946982	     64.78160607
      5.02916670	    -12.18335586	      0.40825544	      4.01498306	      0.44222061	      1.02801384	     -0.07654499	     19.20831784	     -6.39517572	     -8.00488549	      2.25266721	      0.03931646	    -27.27336602	     -4.32158171	     -7.49999987	     23.01658821	     -1.81451822	      7.47714671	     11.86564336	      0.20709454	    -20.46510696	     -7.47489700	     -7.49999987	    -18.60687577	      2.11452878	      2.51796956	      1.28880795	    -10.22932112	    -15.25501402	     37.04760505	     73.43630607	      4.31512471	    -15.95028894	    -59.58278878	     92.48688709	     64.29066525
      5.03333330	    -12.22445276	      0.22726287	      4.10783944	      0.44171220	      1.01953775	     -0.07696367	     19.52522240	     -6.17539926	     -8.17662640	      2.60701208	      0.04550094	    -28.00704451	     -4.59357395	     -7.49999987	     23.43353068	     -1.93026601	      7.27927682	     12.32189076	      0.21505756	    -20.89377985	     -6.98974710	     -7.49999987	    -18.89707459	      2.27079078	      2.41245687	      1.74690237	    -10.11544996	    -14.65889180	     37.62962438	     72.60813991	      4.96665188	    -16.25564532	    -58.97615446	     92.35370863	     63.87918397
      5.03750000	    -11.07255390	      0.15683457	      4.12935637	      0.44528936	      1.01138178	     -0.08018109	     18.55047832	     -6.08716760	     -8.46976360	      3.18603576	      0.05560681	    -28.16857808	     -4.65106390	     -7.49999987	     22.52110514	     -1.99527738	      7.03923501	     12.86030700	      0.22445470	    -21.25217753	     -6.79716857	     -7.49999987	    -20.42546315	      2.70168679	      3.58823950	      2.57123199	    -10.86428826	    -14.47456268	     36.30613162	     71.85436454	      0.22855924	     -8.49827260	    -53.51669066	     77.79804621	     65.54261944
      5.04166670	    -10.21417211	      0.08881868	      4.22079138	      0.44397060	      1.00807108	     -0.07954277	     17.89475328	     -5.98456975	     -8.35095740	      3.93710089	      0.06871537	    -27.47086947	     -4.78898092	     -7.49999987	     21.88148830	     -2.03099234	      6.86410641	     13.42797797	      0.23436243	    -21.04321677	     -6.47716486	     -7.49999987	    -21.58234605	      2.86725404	      4.80585453	      2.10797958	    -11.24891800	    -16.07836493	     36.54763639	     71.05049973	     -1.60356389	     -4.79139196	    -44.55449694	     58.50415805	     74.20080440
      5.04583330	     -9.51916073	      0.02186713	      4.44094650	      0.44616246	      0.99595861	     -0.08150133	     17.44632705	     -6.02497910	     -8.18059250	      4.87145866	      0.08502299	    -26.25150931	     -5.70867902	     -7.49999987	     21.59120795	     -2.00179588	      6.49005435	     14.45201501	      0.25223525	    -20.12449884	     -6.60748248	     -7.49999987	    -22.03491066	      2.82531647	      4.44600958	      1.54566001	    -11.80712535	    -13.22310753	     36.45997613	     70.55535970	     -2.83424828	     -2.48934254	    -35.84850787	     41.67134527	     75.00048241
      5.05000000	     -8.87424194	      0.09401320	      4.69544804	      0.44877670	      0.99240194	     -0.08015382	     17.02881155	     -6.17072626	     -7.81032853	      6.07155886	      0.10596869	    -24.40897319	     -6.91738902	     -7.49999987	     21.12264473	     -1.92579324	      6.07012169	     15.35254937	      0.26795254	    -19.05590427	     -6.90694342	     -7.49999987	    -22.44687413	      2.01845949	      4.31255449	      0.62684113	    -10.97554838	    -13.38100608	     37.25153940	     75.46585364	     -3.31390671	     -1.26882610	    -28.67686317	     31.80257663	     81.04989725
      5.05416670	     -8.84405216	      0.10848573	      4.81760162	      0.44536990	      0.98756572	     -0.08041696	     17.59450188	     -6.32085478	     -7.50768480	      7.88176381	      0.13756273	    -21.75325815	     -8.02182415	     -7.49999987	     21.57803057	     -1.85347746	      5.61426874	     16.71101856	      0.29166230	    -17.07824259	     -7.02825082	     -7.49999987	    -22.39632870	      1.46131835	      4.14136045	      0.43848598	    -10.45686612	    -12.57387388	     38.23999330	     76.67752407	     -3.41076228	     -1.27702749	    -21.15906624	     26.69508042	     81.31771552
      5.05833330	     -9.04732333	      0.00354474	      4.92604012	      0.44596114	      0.98136667	     -0.08222484	     18.49828114	     -6.39622957	     -7.24387379	     10.00764131	      0.17466629	    -18.72146427	     -9.17637712	     -7.49999987	     22.40487927	     -1.85422070	      5.11764998	     18.48085485	      0.32255177	    -14.39807925	     -7.14647667	     -7.49999987	    -22.12311071	      1.35355420	      4.18899206	      0.46018066	    -10.07047873	    -12.72740377	     39.09437321	     79.72250690	     -3.50011346	     -2.33061468	    -13.08580119	     24.83466644	     80.87974851
      5.06250000	     -9.40390052	     -0.11843336	      4.97660125	      0.44612342	      0.97398471	     -0.08132177	     19.66754051	     -6.39077852	     -6.95854780	     12.37710314	      0.21602120	    -15.06170644	    -10.05196395	     -7.49999987	     23.45785130	     -1.89372860	      4.48382260	     20.42768457	      0.35653035	    -11.35576442	     -7.32209915	     -7.49999987	    -21.82053984	      1.34818640	      3.83334647	      1.24329284	    -10.22711838	    -10.97901810	     38.95312088	     79.56038608	     -3.56117180	     -3.94905073	     -6.57224613	     24.83074021	     79.39880312
      5.06666670	     -9.97130618	     -0.32837397	      5.02438280	      0.44534408	      0.96039381	     -0.08067184	     21.31610149	     -6.24820212	     -6.76752022	     15.08650506	      0.26330919	    -10.90773547	    -11.17778611	     -7.49999987	     25.06697156	     -1.97684412	      3.69868685	     22.94271431	      0.40042590	     -7.67276171	     -7.54903881	     -7.49999987	    -21.26165375	      1.53699224	      3.90938566	      1.36351707	    -10.13600102	    -12.29089250	     39.36951818	     85.58974866	     -3.61529747	     -5.71357771	     -1.40172888	     26.06718558	     76.58970819
